# xmcd
#
# Track frame offsets: 
#        150
#        14050
#        27477
#        41130
#        52655
#        68140
#        81185
#        95847
#        110367
#        125187
#        139492
#        153427
#        168650
#        181450
#        194560
#        208762
#        222710
#        237450
#        251762
#        263607
#        278020
#        291787
#        304750
#
# Disc length: 4226 seconds
#
# Revision: 4
# Processed by: cddbd v1.5.2PL0 Copyright (c) Steve Scherf et al.
# Submitted via: ExactAudioCopy v0.99pb1
#
DISCID=6f108017
DTITLE=Sleepy John Estes - I Ain't Gonna Be Worried No More (1929-1941
DTITLE=)
DYEAR=1900
DGENRE=Blues
TTITLE0=Milk Cow Blues
TTITLE1=The Girl I Love, She Got Long Curly Hair
TTITLE2=Someday Baby Blues
TTITLE3=Little Laura Blues
TTITLE4=Black Mattie Blues
TTITLE5=Special Agent (Railroad Police Blues)
TTITLE6=Broken-Hearted, Ragged And Dirty Too
TTITLE7=Drop Down Mama
TTITLE8=Street Car Blues
TTITLE9=Lawyer Clark Blues
TTITLE10=Whatcha Doin'?
TTITLE11=Who's Been Tellin' You Buddy Brown Blues
TTITLE12=Everybody Oughta Make A Change
TTITLE13=Poor John Blues
TTITLE14=Fire Department Blues (Martha Hardin)
TTITLE15=I Ain't Gonna Be Worried No More
TTITLE16=Diving Duck Blues
TTITLE17=Down South Blues
TTITLE18=Clean Up At Home
TTITLE19=Floating Bridge
TTITLE20=Working Man Blues
TTITLE21=Airplane Blues
TTITLE22=Stop That Thing
EXTD=
EXTT0=
EXTT1=
EXTT2=
EXTT3=
EXTT4=
EXTT5=
EXTT6=
EXTT7=
EXTT8=
EXTT9=
EXTT10=
EXTT11=
EXTT12=
EXTT13=
EXTT14=
EXTT15=
EXTT16=
EXTT17=
EXTT18=
EXTT19=
EXTT20=
EXTT21=
EXTT22=
PLAYORDER=
